# xmcd CD database file
#
# Track frame offsets:
#	150
#	12787
#	23812
#	34874
#	55424
#	66615
#	89340
#	107415
#	123165
#	142365
#
# Disc length: 2375 seconds
#
# Revision: 0
# Processed by: cddbd v1.5.2PL0 Copyright (c) Steve Scherf et al.
# Submitted via: CDex 1.70beta2
#
DISCID=8a09450a
DTITLE=Dago Red - Folk'n Blues Memories and Other Tales
DYEAR=2001
DGENRE=Blues
TTITLE0=What's For
TTITLE1=32-20 Blues
TTITLE2=Country Boy
TTITLE3=I Ain't Got No Home
TTITLE4=Feelin' Good
TTITLE5=Railroad Worksong
TTITLE6=Call Me the Breeze
TTITLE7=Good Mornin' Blues
TTITLE8=Love In Vain
TTITLE9=Snapshot
EXTD=YEAR: 2001
EXTT0=
EXTT1=
EXTT2=
EXTT3=
EXTT4=
EXTT5=
EXTT6=
EXTT7=
EXTT8=
EXTT9=
PLAYORDER=
